<svg id="LOGO_ICDVN" data-name="LOGO ICDVN" xmlns="http://www.w3.org/2000/svg" width="100" height="28" viewBox="0 0 100 28">
  <g id="Layer_1">
    <g id="LOGO_GREY">
      <g id="Group_15" data-name="Group 15">
        <g id="Group_14" data-name="Group 14">
          <path id="Path_1" d="M8.6,10.1.4,6.2v7.9l8.2,3.8V10.1Z" fill="#bcbec0"/>
          <path id="Path_2" d="M.2,5.9s-.2.2-.2.3v7.9c0,.2,0,.3.2.3l8.2,3.8h.4s.2-.2.2-.3V10c0-.2,0-.3-.2-.3L.5,5.9Zm.6,1c.9.5,7,3.3,7.4,3.5v7c-.9-.5-7-3.4-7.4-3.5v-7Z" fill="#fff"/>
          <path id="Path_3" d="M16.8,14,8.6,10.2,2.1,16l8.2,3.8L16.8,14Z" fill="#db322b"/>
          <path id="Path_4" d="M8.3,9.8,1.9,15.7s-.2.2,0,.3c0,.2,0,.2.2.3l8.2,3.8h.4l6.5-5.8s.2-.2.2-.3c0-.2,0-.2-.2-.3L9,9.9H8.5Zm.4.7c.4.2,6.6,3.1,7.4,3.5-.7.6-5.5,5-5.8,5.3-.4-.2-6.6-3.1-7.4-3.5.7-.6,5.5-5,5.8-5.3h0Z" fill="#fff"/>
          <path id="Path_5" d="M10.3,19.8,2.1,16v7.9l8.2,3.8Z" fill="#bcbec0"/>
          <path id="Path_6" d="M1.9,15.7s-.2.2-.2.3v7.9c0,.2,0,.3.2.3L10.1,28h.4s.2-.2.2-.3V19.8c0-.2,0-.3-.2-.3L2.3,15.7H1.9Zm.6.8c.9.5,7,3.3,7.4,3.5v7c-.9-.4-7-3.3-7.4-3.5v-7Z" fill="#fff"/>
          <path id="Path_7" d="M16.8,14l-6.5,5.8v7.9l6.5-5.8V14Z" fill="#e6e7e8"/>
          <path id="Path_8" d="M16.5,13.6,10,19.4s-.2.2-.2.3v7.9c0,.2,0,.3.2.3h.4l6.5-5.8s.2-.2.2-.3V13.9c0-.2,0-.3-.2-.3h-.4Zm-.1,1.2v6.9c-.2.2-4.7,4.3-5.7,5.1V19.9c.2-.2,4.7-4.3,5.7-5.1h0Z" fill="#fff"/>
          <path id="Path_9" d="M23.2,8l-6.5,5.8v7.9l6.5-5.8Z" fill="#e6e7e8"/>
          <path id="Path_10" d="M22.9,7.8l-6.5,5.8s-.2.2-.2.3v7.9a.43.43,0,0,0,.4.4h.2l6.5-5.8s.2-.2.2-.3V8.2a.43.43,0,0,0-.4-.4h-.2Zm0,1.1v6.9c-.2.2-4.7,4.3-5.7,5.1V14c.2-.2,4.7-4.3,5.7-5.1h0Z" fill="#fff"/>
          <path id="Path_11" d="M23.2,8,15,4.2,8.5,10l8.2,3.8Z" fill="#ea8f38"/>
          <path id="Path_12" d="M14.7,4,8.2,9.8s-.2.2,0,.3c0,.2,0,.2.2.3l8.2,3.8H17l6.5-5.8s.2-.2.2-.3c0-.2,0-.2-.2-.3L15.3,4h-.5Zm.4.7c.4.2,6.6,3.1,7.4,3.5-.7.6-5.5,5-5.8,5.3-.4-.2-6.6-3.1-7.4-3.5.7-.6,5.5-5,5.8-5.3Z" fill="#fff"/>
          <path id="Path_13" d="M15.1,4.2,6.9.4.4,6.2,8.6,10l6.5-5.8Z" fill="#ea8f38"/>
          <path id="Path_14" d="M6.6,0,.2,6s-.2.2-.2.3c0,.2,0,.2.2.3l8.2,3.8h.4l6.5-5.8s.2-.2,0-.3c0-.2,0-.2-.2-.3L7,0H6.5Zm.3.8c.4.2,6.6,3.1,7.4,3.5-.7.6-5.5,5-5.8,5.3-.4-.2-6.6-3.1-7.4-3.5.7-.6,5.5-5,5.8-5.3Z" fill="#fff"/>
          <path id="Path_15" d="M6.6,7.2,5.5,6.7,9.2,3.3l1.1.5L6.5,7.2h0Z" fill="#fff"/>
          <path id="Path_16" d="M18.7,9.2,15.8,7.8,14.2,9.3l3,1.3-.9.8-3-1.5c-.8-.4-.9-.9-.3-1.4l1.5-1.3a1.268,1.268,0,0,1,.9-.4,1.645,1.645,0,0,1,1,.2l3,1.5-.7.7Z" fill="#fff"/>
          <path id="Path_17" d="M10.5,16.8a1.561,1.561,0,0,1-1.8.4l-3-1.5,3.7-3.3,2.8,1.4a.648.648,0,0,1,.5.6,1.346,1.346,0,0,1-.5.9l-1.6,1.4h0Zm-1.3-.6,1.9-1.7-1.6-.8L7.6,15.4l1.6.8h0Z" fill="#ede94e"/>
        </g>
        <path id="Path_18" d="M50.6,9.5l.6,1.8h2l-1.5,1.2.5,1.8-1.6-1.1L49,14.3l.5-1.8L48,11.3h2l.6-1.8Z" fill="#ede94e"/>
        <path id="Path_19" d="M28.4,8.2h1.5v7.5H28.4Z" fill="#a7a9ac"/>
        <path id="Path_20" d="M36.8,9.5a1.012,1.012,0,0,0-.7-.4c-.3,0-.3,0-.5.2a1.332,1.332,0,0,0-.3.5c0,.3-.2.6-.2.9v2.8a1.2,1.2,0,0,0,.2.8c0,.2.2.3.3.4h.9c.2,0,.2-.2.3-.3,0-.2.2-.4.2-.6v-1h1.5V14a1.489,1.489,0,0,1-.4.9,1.555,1.555,0,0,1-.8.6,2.537,2.537,0,0,1-1.2.2,2.543,2.543,0,0,1-1.4-.3,3.044,3.044,0,0,1-.8-.8,5.638,5.638,0,0,1-.4-1.2V10.3a2.45,2.45,0,0,1,.4-1.2,3.044,3.044,0,0,1,.8-.8A3.529,3.529,0,0,1,36.1,8a2.745,2.745,0,0,1,1.3.2,2.336,2.336,0,0,1,.7.7c.2.2.2.5.3.8v.8H36.9a2.537,2.537,0,0,0-.2-1.2h0l.2.2Z" fill="#a7a9ac"/>
        <path id="Path_21" d="M43.5,8.2a2.745,2.745,0,0,1,1.3.2,2.047,2.047,0,0,1,.8.8,5.638,5.638,0,0,1,.4,1.2v1.5a4.954,4.954,0,0,1-.2,1.7,2.45,2.45,0,0,1-.4,1.2,2.7,2.7,0,0,1-.8.7,2.537,2.537,0,0,1-1.2.2H41V8.2h2.5Zm-.3,6.3c.2,0,.5,0,.6-.2.2,0,.3-.2.4-.5,0-.2.2-.5.2-.8V10.5a1.2,1.2,0,0,0-.2-.8.664.664,0,0,0-.4-.5.952.952,0,0,0-.7-.2h-.6v5.3h.7Z" fill="#a7a9ac"/>
        <path id="Path_22" d="M57.4,13.7h0l1.2-5.5h1.6l-1.8,7.5h-2L54.6,8.2h1.6l1.1,5.5h.1Z" fill="#a7a9ac"/>
        <path id="Path_23" d="M62.3,8.2h1.5v7.5H62.3Z" fill="#a7a9ac"/>
        <path id="Path_24" d="M70.7,9.4H68v1.8h2.5v1.2H68v2h2.8v1.2H66.4V8.1h4.2V9.3h0Z" fill="#a7a9ac"/>
        <path id="Path_25" d="M77.5,9.4H75.8v6.2H74.3V9.4H72.6V8.2h4.8V9.4h0Z" fill="#a7a9ac"/>
        <path id="Path_26" d="M83,13.3h0V8.1h1.4v7.5H82.6l-1.8-5.2h0v5.2H79.4V8.1h1.8Z" fill="#a7a9ac"/>
        <path id="Path_27" d="M89.9,8.2l2,7.5H90.3l-.4-1.6h-2l-.4,1.6H85.9l2-7.5Zm-.2,4.7-.8-3.4h0l-.8,3.4h1.6Z" fill="#a7a9ac"/>
        <path id="Path_28" d="M95.6,8.2l1.1,5.3h0l1.1-5.3H100v7.5H98.6v-6h0l-1.4,6H96l-1.4-6h0v6H93.2V8.2h2.4Z" fill="#a7a9ac"/>
      </g>
    </g>
  </g>
</svg>
